<svg id="visual" viewBox="0 0 960 540" width="960" height="540" xmlns="http://www.w3.org/2000/svg" xmlns:xlink="http://www.w3.org/1999/xlink" version="1.1"><rect x="0" y="0" width="960" height="540" fill="#173040"></rect><path d="M0 301L137 301L137 253L274 253L274 281L411 281L411 208L549 208L549 225L686 225L686 238L823 238L823 307L960 307L960 304L960 0L960 0L823 0L823 0L686 0L686 0L549 0L549 0L411 0L411 0L274 0L274 0L137 0L137 0L0 0Z" fill="#1a1e40"></path><path d="M0 171L137 171L137 127L274 127L274 158L411 158L411 188L549 188L549 190L686 190L686 208L823 208L823 193L960 193L960 161L960 0L960 0L823 0L823 0L686 0L686 0L549 0L549 0L411 0L411 0L274 0L274 0L137 0L137 0L0 0Z" fill="#10153d"></path><path d="M0 131L137 131L137 104L274 104L274 124L411 124L411 62L549 62L549 69L686 69L686 63L823 63L823 53L960 53L960 137L960 0L960 0L823 0L823 0L686 0L686 0L549 0L549 0L411 0L411 0L274 0L274 0L137 0L137 0L0 0Z" fill="#070b3a"></path></svg>