<svg xmlns="http://www.w3.org/2000/svg" xmlns:xlink="http://www.w3.org/1999/xlink" version="1.1" width="960" height="400" viewBox="0 0 960 400" xml:space="preserve">
<desc>Created with Fabric.js 3.5.0</desc>
<defs>
</defs>
<rect x="0" y="0" width="100%" height="100%" fill="#ffffff"/>
<g transform="matrix(1.0019 0 0 1.3216 477.9055 43.8908)" id="635876">
<g style="" vector-effect="non-scaling-stroke">
		<g transform="matrix(1 0 0 1 0 0)" id="visual">
<rect style="stroke: none; stroke-width: 1; stroke-dasharray: none; stroke-linecap: butt; stroke-dashoffset: 0; stroke-linejoin: miter; stroke-miterlimit: 4; is-custom-font: none; font-file-url: none; fill: rgb(23,48,64); fill-rule: nonzero; opacity: 1;" x="-480" y="-270" rx="0" ry="0" width="960" height="540"/>
</g>
		<g transform="matrix(1 0 0 1 0 116)" id="visual">
<path style="stroke: none; stroke-width: 1; stroke-dasharray: none; stroke-linecap: butt; stroke-dashoffset: 0; stroke-linejoin: miter; stroke-miterlimit: 4; is-custom-font: none; font-file-url: none; fill: rgb(26,30,64); fill-rule: nonzero; opacity: 1;" transform=" translate(-480, -386)" d="M 0 237 L 137 237 L 137 285 L 274 285 L 274 257 L 411 257 L 411 330 L 549 330 L 549 313 L 686 313 L 686 300 L 823 300 L 823 231 L 960 231 L 960 234 L 960 541 L 960 541 L 823 541 L 823 541 L 686 541 L 686 541 L 549 541 L 549 541 L 411 541 L 411 541 L 274 541 L 274 541 L 137 541 L 137 541 L 0 541 Z" stroke-linecap="round"/>
</g>
		<g transform="matrix(1 0 0 1 0 165.5)" id="visual">
<path style="stroke: none; stroke-width: 1; stroke-dasharray: none; stroke-linecap: butt; stroke-dashoffset: 0; stroke-linejoin: miter; stroke-miterlimit: 4; is-custom-font: none; font-file-url: none; fill: rgb(16,21,61); fill-rule: nonzero; opacity: 1;" transform=" translate(-480, -435.5)" d="M 0 367 L 137 367 L 137 411 L 274 411 L 274 380 L 411 380 L 411 350 L 549 350 L 549 348 L 686 348 L 686 330 L 823 330 L 823 345 L 960 345 L 960 377 L 960 541 L 960 541 L 823 541 L 823 541 L 686 541 L 686 541 L 549 541 L 549 541 L 411 541 L 411 541 L 274 541 L 274 541 L 137 541 L 137 541 L 0 541 Z" stroke-linecap="round"/>
</g>
		<g transform="matrix(1 0 0 1 0 201)" id="visual">
<path style="stroke: none; stroke-width: 1; stroke-dasharray: none; stroke-linecap: butt; stroke-dashoffset: 0; stroke-linejoin: miter; stroke-miterlimit: 4; is-custom-font: none; font-file-url: none; fill: rgb(7,11,58); fill-rule: nonzero; opacity: 1;" transform=" translate(-480, -471)" d="M 0 407 L 137 407 L 137 434 L 274 434 L 274 414 L 411 414 L 411 476 L 549 476 L 549 469 L 686 469 L 686 475 L 823 475 L 823 485 L 960 485 L 960 401 L 960 541 L 960 541 L 823 541 L 823 541 L 686 541 L 686 541 L 549 541 L 549 541 L 411 541 L 411 541 L 274 541 L 274 541 L 137 541 L 137 541 L 0 541 Z" stroke-linecap="round"/>
</g>
</g>
</g>
</svg>